<svg width="22" height="17" viewBox="0 0 22 17" fill="none" xmlns="http://www.w3.org/2000/svg">
<path d="M13 8.1001L9.5 10.1001V6.1001L13 8.1001Z" fill="black" stroke="black" stroke-width="2" stroke-linecap="round" stroke-linejoin="round"/>
<path d="M1 8.808V7.392C1 4.497 1 3.049 1.905 2.118C2.811 1.186 4.237 1.146 7.088 1.065C8.438 1.027 9.818 1 11 1C12.182 1 13.561 1.027 14.912 1.065C17.763 1.146 19.189 1.186 20.094 2.118C20.999 3.05 21 4.498 21 7.392V8.807C21 11.703 21 13.15 20.095 14.082C19.189 15.013 17.764 15.054 14.912 15.134C13.562 15.173 12.182 15.2 11 15.2C9.818 15.2 8.439 15.173 7.088 15.134C4.237 15.054 2.811 15.014 1.905 14.082C0.999 13.15 1 11.702 1 8.808Z" stroke="black" stroke-width="2"/>
</svg>
